<svg width="512" height="512" version="1.1" xmlns="http://www.w3.org/2000/svg" desc="Created with imagetracer.js version 1.2.6" ><path fill="rgb(0,0,0)" stroke="rgb(0,0,0)" stroke-width="1" opacity="0" d="M 0 0 L 512 0 L 512 512 L 0 512 L 0 0 Z M 114 4 L 108 7 L 102 14 L 100 23 L 97 78 L 96 79 L 96 92 L 95 93 L 95 106 L 94 107 L 94 120 L 93 121 L 93 134 L 92 135 L 92 491 L 95 501 Q 99 506 106 508 L 224 508 L 230 505 L 235 499 L 237 491 L 238 467 L 239 466 L 239 455 L 240 454 L 240 443 L 241 442 L 241 431 L 242 430 L 242 419 L 243 418 L 243 407 L 244 406 L 244 395 L 245 394 L 245 382 L 246 381 L 246 370 L 247 369 L 247 358 L 248 357 L 248 346 L 249 345 L 249 334 L 250 333 L 250 322 L 251 321 L 251 310 L 252 309 L 252 298 L 253 297 L 254 273 L 255 272 L 255 261 L 257 260 L 260 309 L 261 310 L 261 321 L 262 322 L 262 333 L 263 334 L 263 345 L 264 346 L 264 357 L 265 358 L 265 369 L 266 370 L 266 382 L 267 383 L 267 394 L 268 395 L 268 406 L 269 407 L 269 418 L 270 419 L 270 430 L 271 431 L 271 442 L 272 443 L 272 454 L 273 455 L 273 467 L 274 468 L 274 479 L 275 480 L 275 491 L 279 502 L 289 508 L 407 508 L 413 505 L 417 501 L 420 491 L 420 135 L 419 134 L 419 121 L 418 120 L 418 107 L 417 106 L 417 93 L 416 92 L 416 79 L 415 78 L 412 23 L 410 14 L 408 11 L 399 4 L 114 4 Z " /><path fill="rgb(0,0,0)" stroke="rgb(0,0,0)" stroke-width="1" opacity="0" d="M 116.5 18 L 248.5 18 L 249 18.5 L 249 39 L 114.5 39 L 114 38.5 L 114 26.5 Q 116.5 25 115 19.5 L 116.5 18 Z " /><path fill="rgb(0,0,0)" stroke="rgb(0,0,0)" stroke-width="1" opacity="0" d="M 263 18 L 395.5 18 L 397 19.5 L 398 39 L 263.5 39 L 263 38.5 L 263 18 Z " /><path fill="rgb(0,0,0)" stroke="rgb(0,0,0)" stroke-width="1" opacity="0" d="M 113.5 53 L 124.5 53 L 125 53.5 L 125 105.5 Q 123.3 115.8 116.5 121 L 107.5 126 L 107 124.5 L 108 123.5 L 108 110.5 L 109 109.5 L 109 96.5 L 110 95.5 L 110 82.5 L 111 81.5 L 111 68.5 L 112 67.5 L 112 54.5 L 113.5 53 Z " /><path fill="rgb(0,0,0)" stroke="rgb(0,0,0)" stroke-width="1" opacity="0" d="M 139 53 L 249 53 L 249 131.5 L 253.5 136 L 273.5 136 Q 281.4 133.9 285 127.5 L 287 121.5 L 287 53 L 373 53 L 373 108.5 Q 376.4 123.6 386.5 132 L 398.5 139 L 405 140 L 405 492.5 L 403.5 494 L 291.5 494 L 290 492.5 L 289 475.5 L 288 474.5 L 288 463.5 L 287 462.5 L 287 451.5 L 286 450.5 L 286 439.5 L 285 438.5 L 284 414.5 L 283 413.5 L 283 402.5 L 282 401.5 L 282 390.5 L 281 389.5 L 281 378.5 L 280 377.5 L 280 366.5 L 279 365.5 L 279 354.5 L 278 353.5 L 276 317.5 L 275 316.5 L 275 305.5 L 274 304.5 L 274 293.5 L 273 292.5 L 273 281.5 L 272 280.5 L 272 269.5 L 271 268.5 L 269 232.5 L 268 231.5 L 268 220.5 L 267 219.5 L 267 208.5 L 266 207.5 L 266 196.5 L 265 195.5 L 265 184.5 L 264 183.5 L 264 171.5 Q 261.5 170 263 164.5 L 259.5 161 L 254.5 160 L 249 164.5 L 247 195.5 L 246 196.5 L 246 207.5 L 245 208.5 L 245 219.5 L 244 220.5 L 244 231.5 L 243 232.5 L 243 243.5 L 242 244.5 L 242 255.5 L 241 256.5 L 241 267.5 L 240 268.5 L 239 292.5 L 238 293.5 L 238 304.5 L 237 305.5 L 237 316.5 L 236 317.5 L 236 328.5 L 235 329.5 L 235 340.5 L 234 341.5 L 234 352.5 L 233 353.5 L 231 389.5 L 230 390.5 L 230 401.5 L 229 402.5 L 229 413.5 L 228 414.5 L 228 425.5 L 227 426.5 L 227 437.5 L 226 438.5 L 224 474.5 L 223 475.5 L 223 486.5 Q 220.8 487.7 222 492.5 L 220.5 494 L 108.5 494 L 107 492.5 L 107 140.5 L 110.5 140 Q 122.8 136.3 130 127.5 Q 136.5 120 139 108.5 L 139 53 Z " /><path fill="rgb(0,0,0)" stroke="rgb(0,0,0)" stroke-width="1" opacity="0" d="M 263 53 L 272.5 53 L 273 53.5 L 273 118.5 L 270.5 122 L 263.5 122 L 263 121.5 L 263 53 Z " /><path fill="rgb(0,0,0)" stroke="rgb(0,0,0)" stroke-width="1" opacity="0" d="M 387 53 L 398.5 53 L 400 54.5 L 400 67.5 L 401 68.5 L 401 81.5 L 402 82.5 L 402 95.5 L 403 96.5 L 403 109.5 L 404 110.5 L 404 123.5 L 405 125.5 L 403.5 125 L 399.5 124 L 393 118.5 L 387 106.5 L 387 53 Z " /><path fill="rgb(0,0,0)" stroke="rgb(0,0,0)" stroke-width="1" opacity="0.7372549019607844" d="M 107.5 7 L 104.5 11 L 107.5 7 Z " /><path fill="rgb(0,0,0)" stroke="rgb(0,0,0)" stroke-width="1" opacity="0.7372549019607844" d="M 404.5 7 L 407.5 11 L 404.5 7 Z " /><path fill="rgb(0,0,0)" stroke="rgb(0,0,0)" stroke-width="1" opacity="0.7372549019607844" d="M 103.5 12 L 102.5 14 L 103.5 12 Z " /><path fill="rgb(0,0,0)" stroke="rgb(0,0,0)" stroke-width="1" opacity="0.7372549019607844" d="M 118.5 17 L 249 17.5 L 118.5 18 L 118.5 17 Z " /><path fill="rgb(0,0,0)" stroke="rgb(0,0,0)" stroke-width="1" opacity="0.7372549019607844" d="M 263.5 17 L 394 17.5 L 263.5 18 L 263.5 17 Z " /><path fill="rgb(0,0,0)" stroke="rgb(0,0,0)" stroke-width="1" opacity="0.7372549019607844" d="M 114.5 20 L 115 25.5 L 114 25.5 L 114.5 20 Z " /><path fill="rgb(0,0,0)" stroke="rgb(0,0,0)" stroke-width="1" opacity="0.7372549019607844" d="M 397.5 20 L 398 25.5 L 397 25.5 L 397.5 20 Z " /><path fill="rgb(0,0,0)" stroke="rgb(0,0,0)" stroke-width="1" opacity="0.7372549019607844" d="M 100.5 22 L 101 28.5 L 100 28.5 L 100.5 22 Z " /><path fill="rgb(0,0,0)" stroke="rgb(0,0,0)" stroke-width="1" opacity="0.7372549019607844" d="M 411.5 22 L 412 28.5 L 411 28.5 L 411.5 22 Z " /><path fill="rgb(0,0,0)" stroke="rgb(0,0,0)" stroke-width="1" opacity="0.7372549019607844" d="M 113.5 33 L 114 38.5 L 113 38.5 L 113.5 33 Z " /><path fill="rgb(0,0,0)" stroke="rgb(0,0,0)" stroke-width="1" opacity="0.7372549019607844" d="M 398.5 33 L 399 38.5 L 398 38.5 L 398.5 33 Z " /><path fill="rgb(0,0,0)" stroke="rgb(0,0,0)" stroke-width="1" opacity="0.7372549019607844" d="M 99.5 36 L 100 42.5 L 99 42.5 L 99.5 36 Z " /><path fill="rgb(0,0,0)" stroke="rgb(0,0,0)" stroke-width="1" opacity="0.7372549019607844" d="M 412.5 36 L 413 42.5 L 412 42.5 L 412.5 36 Z " /><path fill="rgb(0,0,0)" stroke="rgb(0,0,0)" stroke-width="1" opacity="0.7372549019607844" d="M 98.5 50 L 99 56.5 L 98 56.5 L 98.5 50 Z " /><path fill="rgb(0,0,0)" stroke="rgb(0,0,0)" stroke-width="1" opacity="0.7372549019607844" d="M 413.5 50 L 414 56.5 L 413 56.5 L 413.5 50 Z " /><path fill="rgb(0,0,0)" stroke="rgb(0,0,0)" stroke-width="1" opacity="0.7372549019607844" d="M 112 52 L 125 52.5 L 113.5 53 L 112.5 54 L 112 52 Z " /><path fill="rgb(0,0,0)" stroke="rgb(0,0,0)" stroke-width="1" opacity="0.7372549019607844" d="M 139.5 52 L 249 52.5 L 139.5 53 L 139.5 52 Z " /><path fill="rgb(0,0,0)" stroke="rgb(0,0,0)" stroke-width="1" opacity="0.7372549019607844" d="M 263.5 52 L 273 52.5 L 263.5 53 L 263.5 52 Z " /><path fill="rgb(0,0,0)" stroke="rgb(0,0,0)" stroke-width="1" opacity="0.7372549019607844" d="M 287.5 52 L 373 52.5 L 287 53 L 286.5 122 L 286 53.5 L 287.5 52 Z " /><path fill="rgb(0,0,0)" stroke="rgb(0,0,0)" stroke-width="1" opacity="0.7372549019607844" d="M 387.5 52 L 399.5 52 L 400 53.5 L 398.5 53 L 387.5 53 L 387.5 52 Z " /><path fill="rgb(0,0,0)" stroke="rgb(0,0,0)" stroke-width="1" opacity="0.7372549019607844" d="M 111.5 61 L 112 67.5 L 111 67.5 L 111.5 61 Z " /><path fill="rgb(0,0,0)" stroke="rgb(0,0,0)" stroke-width="1" opacity="0.7372549019607844" d="M 400.5 61 L 401 67.5 L 400 67.5 L 400.5 61 Z " /><path fill="rgb(0,0,0)" stroke="rgb(0,0,0)" stroke-width="1" opacity="0.7372549019607844" d="M 97.5 64 L 98 70.5 L 97 70.5 L 97.5 64 Z " /><path fill="rgb(0,0,0)" stroke="rgb(0,0,0)" stroke-width="1" opacity="0.7372549019607844" d="M 414.5 64 L 415 70.5 L 414 70.5 L 414.5 64 Z " /><path fill="rgb(0,0,0)" stroke="rgb(0,0,0)" stroke-width="1" opacity="0.7372549019607844" d="M 110.5 75 L 111 81.5 L 110 81.5 L 110.5 75 Z " /><path fill="rgb(0,0,0)" stroke="rgb(0,0,0)" stroke-width="1" opacity="0.7372549019607844" d="M 401.5 75 L 402 81.5 L 401 81.5 L 401.5 75 Z " /><path fill="rgb(0,0,0)" stroke="rgb(0,0,0)" stroke-width="1" opacity="0.7372549019607844" d="M 96.5 78 L 97 84.5 L 96 84.5 L 96.5 78 Z " /><path fill="rgb(0,0,0)" stroke="rgb(0,0,0)" stroke-width="1" opacity="0.7372549019607844" d="M 415.5 78 L 416 84.5 L 415 84.5 L 415.5 78 Z " /><path fill="rgb(0,0,0)" stroke="rgb(0,0,0)" stroke-width="1" opacity="0.7372549019607844" d="M 109.5 89 L 110 95.5 L 109 95.5 L 109.5 89 Z " /><path fill="rgb(0,0,0)" stroke="rgb(0,0,0)" stroke-width="1" opacity="0.7372549019607844" d="M 402.5 89 L 403 95.5 L 402 95.5 L 402.5 89 Z " /><path fill="rgb(0,0,0)" stroke="rgb(0,0,0)" stroke-width="1" opacity="0.7372549019607844" d="M 95.5 92 L 96 98.5 L 95 98.5 L 95.5 92 Z " /><path fill="rgb(0,0,0)" stroke="rgb(0,0,0)" stroke-width="1" opacity="0.7372549019607844" d="M 416.5 92 L 417 98.5 L 416 98.5 L 416.5 92 Z " /><path fill="rgb(0,0,0)" stroke="rgb(0,0,0)" stroke-width="1" opacity="0.7372549019607844" d="M 108.5 103 L 109 109.5 L 108 109.5 L 108.5 103 Z " /><path fill="rgb(0,0,0)" stroke="rgb(0,0,0)" stroke-width="1" opacity="0.7372549019607844" d="M 403.5 103 L 404 109.5 L 403 109.5 L 403.5 103 Z " /><path fill="rgb(0,0,0)" stroke="rgb(0,0,0)" stroke-width="1" opacity="0.7372549019607844" d="M 94.5 106 L 95 112.5 L 94 112.5 L 94.5 106 Z " /><path fill="rgb(0,0,0)" stroke="rgb(0,0,0)" stroke-width="1" opacity="0.7372549019607844" d="M 124.5 106 L 125 108.5 L 124 108.5 L 124.5 106 Z " /><path fill="rgb(0,0,0)" stroke="rgb(0,0,0)" stroke-width="1" opacity="0.7372549019607844" d="M 138.5 106 L 139 108.5 L 138 108.5 L 138.5 106 Z " /><path fill="rgb(0,0,0)" stroke="rgb(0,0,0)" stroke-width="1" opacity="0.7372549019607844" d="M 373.5 106 L 374 108.5 L 373 108.5 L 373.5 106 Z " /><path fill="rgb(0,0,0)" stroke="rgb(0,0,0)" stroke-width="1" opacity="0.7372549019607844" d="M 417.5 106 L 418 112.5 L 417 112.5 L 417.5 106 Z " /><path fill="rgb(0,0,0)" stroke="rgb(0,0,0)" stroke-width="1" opacity="0.7372549019607844" d="M 122.5 113 L 121.5 115 L 122.5 113 Z " /><path fill="rgb(0,0,0)" stroke="rgb(0,0,0)" stroke-width="1" opacity="0.7372549019607844" d="M 389.5 113 L 390.5 115 L 389.5 113 Z " /><path fill="rgb(0,0,0)" stroke="rgb(0,0,0)" stroke-width="1" opacity="0.7372549019607844" d="M 120.5 116 L 119.5 118 L 120.5 116 Z " /><path fill="rgb(0,0,0)" stroke="rgb(0,0,0)" stroke-width="1" opacity="0.7372549019607844" d="M 391.5 116 L 392.5 118 L 391.5 116 Z " /><path fill="rgb(0,0,0)" stroke="rgb(0,0,0)" stroke-width="1" opacity="0.7372549019607844" d="M 107.5 117 L 108 123.5 L 107 123.5 L 107.5 117 Z " /><path fill="rgb(0,0,0)" stroke="rgb(0,0,0)" stroke-width="1" opacity="0.7372549019607844" d="M 404.5 117 L 405 123.5 L 404 123.5 L 404.5 117 Z " /><path fill="rgb(0,0,0)" stroke="rgb(0,0,0)" stroke-width="1" opacity="0.7372549019607844" d="M 272.5 119 L 273 120.5 L 271 121.5 L 272.5 119 Z " /><path fill="rgb(0,0,0)" stroke="rgb(0,0,0)" stroke-width="1" opacity="0.7372549019607844" d="M 93.5 120 L 94 126.5 L 93 126.5 L 93.5 120 Z " /><path fill="rgb(0,0,0)" stroke="rgb(0,0,0)" stroke-width="1" opacity="0.7372549019607844" d="M 418.5 120 L 419 126.5 L 418 126.5 L 418.5 120 Z " /><path fill="rgb(0,0,0)" stroke="rgb(0,0,0)" stroke-width="1" opacity="0.7372549019607844" d="M 115.5 121 L 114.5 123 L 115.5 121 Z " /><path fill="rgb(0,0,0)" stroke="rgb(0,0,0)" stroke-width="1" opacity="0.7372549019607844" d="M 396.5 121 L 397.5 123 L 396.5 121 Z " /><path fill="rgb(0,0,0)" stroke="rgb(0,0,0)" stroke-width="1" opacity="0.7372549019607844" d="M 112.5 123 L 111.5 125 L 112.5 123 Z " /><path fill="rgb(0,0,0)" stroke="rgb(0,0,0)" stroke-width="1" opacity="0.7372549019607844" d="M 132.5 123 L 131.5 125 L 132.5 123 Z " /><path fill="rgb(0,0,0)" stroke="rgb(0,0,0)" stroke-width="1" opacity="0.7372549019607844" d="M 379.5 123 L 380.5 125 L 379.5 123 Z " /><path fill="rgb(0,0,0)" stroke="rgb(0,0,0)" stroke-width="1" opacity="0.7372549019607844" d="M 129.5 127 L 125.5 132 L 129.5 127 Z " /><path fill="rgb(0,0,0)" stroke="rgb(0,0,0)" stroke-width="1" opacity="0.7372549019607844" d="M 284.5 127 L 283.5 129 L 284.5 127 Z " /><path fill="rgb(0,0,0)" stroke="rgb(0,0,0)" stroke-width="1" opacity="0.7372549019607844" d="M 382.5 127 L 386.5 132 L 382.5 127 Z " /><path fill="rgb(0,0,0)" stroke="rgb(0,0,0)" stroke-width="1" opacity="0.7372549019607844" d="M 279.5 132 L 278.5 134 L 279.5 132 Z " /><path fill="rgb(0,0,0)" stroke="rgb(0,0,0)" stroke-width="1" opacity="0.7372549019607844" d="M 122.5 133 L 121.5 135 L 122.5 133 Z " /><path fill="rgb(0,0,0)" stroke="rgb(0,0,0)" stroke-width="1" opacity="0.7372549019607844" d="M 389.5 133 L 390.5 135 L 389.5 133 Z " /><path fill="rgb(0,0,0)" stroke="rgb(0,0,0)" stroke-width="1" opacity="0.7372549019607844" d="M 92.5 134 L 93 490.5 L 92 490.5 L 92.5 134 Z " /><path fill="rgb(0,0,0)" stroke="rgb(0,0,0)" stroke-width="1" opacity="0.7372549019607844" d="M 419.5 134 L 420 490.5 L 419 490.5 L 419.5 134 Z " /><path fill="rgb(0,0,0)" stroke="rgb(0,0,0)" stroke-width="1" opacity="0.7372549019607844" d="M 271.5 135 L 274 135.5 L 271.5 136 L 271.5 135 Z " /><path fill="rgb(0,0,0)" stroke="rgb(0,0,0)" stroke-width="1" opacity="0.7372549019607844" d="M 106.5 140 L 107 491.5 L 106 491.5 L 106.5 140 Z " /><path fill="rgb(0,0,0)" stroke="rgb(0,0,0)" stroke-width="1" opacity="0.7372549019607844" d="M 405.5 140 L 406 491.5 L 405 491.5 L 405.5 140 Z " /><path fill="rgb(0,0,0)" stroke="rgb(0,0,0)" stroke-width="1" opacity="0.7372549019607844" d="M 254.5 160 L 258 160.5 L 254.5 161 L 254.5 160 Z " /><path fill="rgb(0,0,0)" stroke="rgb(0,0,0)" stroke-width="1" opacity="0.7372549019607844" d="M 250.5 163 L 250 164.5 L 249.5 166 L 249 164.5 L 250.5 163 Z " /><path fill="rgb(0,0,0)" stroke="rgb(0,0,0)" stroke-width="1" opacity="0.7372549019607844" d="M 261.5 163 L 263 165.5 L 262 165.5 L 261.5 163 Z " /><path fill="rgb(0,0,0)" stroke="rgb(0,0,0)" stroke-width="1" opacity="0.7372549019607844" d="M 248.5 171 L 249 176.5 L 248 176.5 L 248.5 171 Z " /><path fill="rgb(0,0,0)" stroke="rgb(0,0,0)" stroke-width="1" opacity="0.7372549019607844" d="M 263.5 171 L 264 176.5 L 263 176.5 L 263.5 171 Z " /><path fill="rgb(0,0,0)" stroke="rgb(0,0,0)" stroke-width="1" opacity="0.7372549019607844" d="M 247.5 184 L 248 189.5 L 247 189.5 L 247.5 184 Z " /><path fill="rgb(0,0,0)" stroke="rgb(0,0,0)" stroke-width="1" opacity="0.7372549019607844" d="M 264.5 184 L 265 189.5 L 264 189.5 L 264.5 184 Z " /><path fill="rgb(0,0,0)" stroke="rgb(0,0,0)" stroke-width="1" opacity="0.7372549019607844" d="M 246.5 196 L 247 201.5 L 246 201.5 L 246.5 196 Z " /><path fill="rgb(0,0,0)" stroke="rgb(0,0,0)" stroke-width="1" opacity="0.7372549019607844" d="M 265.5 196 L 266 201.5 L 265 201.5 L 265.5 196 Z " /><path fill="rgb(0,0,0)" stroke="rgb(0,0,0)" stroke-width="1" opacity="0.7372549019607844" d="M 245.5 208 L 246 213.5 L 245 213.5 L 245.5 208 Z " /><path fill="rgb(0,0,0)" stroke="rgb(0,0,0)" stroke-width="1" opacity="0.7372549019607844" d="M 266.5 208 L 267 213.5 L 266 213.5 L 266.5 208 Z " /><path fill="rgb(0,0,0)" stroke="rgb(0,0,0)" stroke-width="1" opacity="0.7372549019607844" d="M 244.5 220 L 245 225.5 L 244 225.5 L 244.5 220 Z " /><path fill="rgb(0,0,0)" stroke="rgb(0,0,0)" stroke-width="1" opacity="0.7372549019607844" d="M 267.5 220 L 268 225.5 L 267 225.5 L 267.5 220 Z " /><path fill="rgb(0,0,0)" stroke="rgb(0,0,0)" stroke-width="1" opacity="0.7372549019607844" d="M 243.5 232 L 244 237.5 L 243 237.5 L 243.5 232 Z " /><path fill="rgb(0,0,0)" stroke="rgb(0,0,0)" stroke-width="1" opacity="0.7372549019607844" d="M 268.5 232 L 269 237.5 L 268 237.5 L 268.5 232 Z " /><path fill="rgb(0,0,0)" stroke="rgb(0,0,0)" stroke-width="1" opacity="0.7372549019607844" d="M 242.5 244 L 243 249.5 L 242 249.5 L 242.5 244 Z " /><path fill="rgb(0,0,0)" stroke="rgb(0,0,0)" stroke-width="1" opacity="0.7372549019607844" d="M 269.5 244 L 270 249.5 L 269 249.5 L 269.5 244 Z " /><path fill="rgb(0,0,0)" stroke="rgb(0,0,0)" stroke-width="1" opacity="0.7372549019607844" d="M 255 254 L 257 254 L 257 260 L 255 260 L 255 254 Z " /><path fill="rgb(0,0,0)" stroke="rgb(0,0,0)" stroke-width="1" opacity="0.7372549019607844" d="M 241.5 256 L 242 261.5 L 241 261.5 L 241.5 256 Z " /><path fill="rgb(0,0,0)" stroke="rgb(0,0,0)" stroke-width="1" opacity="0.7372549019607844" d="M 270.5 256 L 271 261.5 L 270 261.5 L 270.5 256 Z " /><path fill="rgb(0,0,0)" stroke="rgb(0,0,0)" stroke-width="1" opacity="0.7372549019607844" d="M 254.5 266 L 255 271.5 L 254 271.5 L 254.5 266 Z " /><path fill="rgb(0,0,0)" stroke="rgb(0,0,0)" stroke-width="1" opacity="0.7372549019607844" d="M 257.5 266 L 258 271.5 L 257 271.5 L 257.5 266 Z " /><path fill="rgb(0,0,0)" stroke="rgb(0,0,0)" stroke-width="1" opacity="0.7372549019607844" d="M 240.5 268 L 241 274.5 L 240 274.5 L 240.5 268 Z " /><path fill="rgb(0,0,0)" stroke="rgb(0,0,0)" stroke-width="1" opacity="0.7372549019607844" d="M 271.5 269 L 272 274.5 L 271 274.5 L 271.5 269 Z " /><path fill="rgb(0,0,0)" stroke="rgb(0,0,0)" stroke-width="1" opacity="0.7372549019607844" d="M 253.5 278 L 254 283.5 L 253 283.5 L 253.5 278 Z " /><path fill="rgb(0,0,0)" stroke="rgb(0,0,0)" stroke-width="1" opacity="0.7372549019607844" d="M 258.5 278 L 259 283.5 L 258 283.5 L 258.5 278 Z " /><path fill="rgb(0,0,0)" stroke="rgb(0,0,0)" stroke-width="1" opacity="0.7372549019607844" d="M 239.5 281 L 240 286.5 L 239 286.5 L 239.5 281 Z " /><path fill="rgb(0,0,0)" stroke="rgb(0,0,0)" stroke-width="1" opacity="0.7372549019607844" d="M 272.5 281 L 273 286.5 L 272 286.5 L 272.5 281 Z " /><path fill="rgb(0,0,0)" stroke="rgb(0,0,0)" stroke-width="1" opacity="0.7372549019607844" d="M 252.5 290 L 253 296.5 L 252 296.5 L 252.5 290 Z " /><path fill="rgb(0,0,0)" stroke="rgb(0,0,0)" stroke-width="1" opacity="0.7372549019607844" d="M 259.5 291 L 260 296.5 L 259 296.5 L 259.5 291 Z " /><path fill="rgb(0,0,0)" stroke="rgb(0,0,0)" stroke-width="1" opacity="0.7372549019607844" d="M 238.5 293 L 239 298.5 L 238 298.5 L 238.5 293 Z " /><path fill="rgb(0,0,0)" stroke="rgb(0,0,0)" stroke-width="1" opacity="0.7372549019607844" d="M 273.5 293 L 274 298.5 L 273 298.5 L 273.5 293 Z " /><path fill="rgb(0,0,0)" stroke="rgb(0,0,0)" stroke-width="1" opacity="0.7372549019607844" d="M 251.5 303 L 252 308.5 L 251 308.5 L 251.5 303 Z " /><path fill="rgb(0,0,0)" stroke="rgb(0,0,0)" stroke-width="1" opacity="0.7372549019607844" d="M 260.5 303 L 261 308.5 L 260 308.5 L 260.5 303 Z " /><path fill="rgb(0,0,0)" stroke="rgb(0,0,0)" stroke-width="1" opacity="0.7372549019607844" d="M 237.5 305 L 238 310.5 L 237 310.5 L 237.5 305 Z " /><path fill="rgb(0,0,0)" stroke="rgb(0,0,0)" stroke-width="1" opacity="0.7372549019607844" d="M 274.5 305 L 275 310.5 L 274 310.5 L 274.5 305 Z " /><path fill="rgb(0,0,0)" stroke="rgb(0,0,0)" stroke-width="1" opacity="0.7372549019607844" d="M 250.5 315 L 251 320.5 L 250 320.5 L 250.5 315 Z " /><path fill="rgb(0,0,0)" stroke="rgb(0,0,0)" stroke-width="1" opacity="0.7372549019607844" d="M 261.5 315 L 262 320.5 L 261 320.5 L 261.5 315 Z " /><path fill="rgb(0,0,0)" stroke="rgb(0,0,0)" stroke-width="1" opacity="0.7372549019607844" d="M 236.5 317 L 237 322.5 L 236 322.5 L 236.5 317 Z " /><path fill="rgb(0,0,0)" stroke="rgb(0,0,0)" stroke-width="1" opacity="0.7372549019607844" d="M 275.5 317 L 276 322.5 L 275 322.5 L 275.5 317 Z " /><path fill="rgb(0,0,0)" stroke="rgb(0,0,0)" stroke-width="1" opacity="0.7372549019607844" d="M 249.5 327 L 250 332.5 L 249 332.5 L 249.5 327 Z " /><path fill="rgb(0,0,0)" stroke="rgb(0,0,0)" stroke-width="1" opacity="0.7372549019607844" d="M 262.5 327 L 263 332.5 L 262 332.5 L 262.5 327 Z " /><path fill="rgb(0,0,0)" stroke="rgb(0,0,0)" stroke-width="1" opacity="0.7372549019607844" d="M 235.5 329 L 236 334.5 L 235 334.5 L 235.5 329 Z " /><path fill="rgb(0,0,0)" stroke="rgb(0,0,0)" stroke-width="1" opacity="0.7372549019607844" d="M 276.5 329 L 277 334.5 L 276 334.5 L 276.5 329 Z " /><path fill="rgb(0,0,0)" stroke="rgb(0,0,0)" stroke-width="1" opacity="0.7372549019607844" d="M 248.5 339 L 249 344.5 L 248 344.5 L 248.5 339 Z " /><path fill="rgb(0,0,0)" stroke="rgb(0,0,0)" stroke-width="1" opacity="0.7372549019607844" d="M 263.5 339 L 264 344.5 L 263 344.5 L 263.5 339 Z " /><path fill="rgb(0,0,0)" stroke="rgb(0,0,0)" stroke-width="1" opacity="0.7372549019607844" d="M 234.5 341 L 235 346.5 L 234 346.5 L 234.5 341 Z " /><path fill="rgb(0,0,0)" stroke="rgb(0,0,0)" stroke-width="1" opacity="0.7372549019607844" d="M 277.5 341 L 278 346.5 L 277 346.5 L 277.5 341 Z " /><path fill="rgb(0,0,0)" stroke="rgb(0,0,0)" stroke-width="1" opacity="0.7372549019607844" d="M 247.5 351 L 248 356.5 L 247 356.5 L 247.5 351 Z " /><path fill="rgb(0,0,0)" stroke="rgb(0,0,0)" stroke-width="1" opacity="0.7372549019607844" d="M 264.5 351 L 265 356.5 L 264 356.5 L 264.5 351 Z " /><path fill="rgb(0,0,0)" stroke="rgb(0,0,0)" stroke-width="1" opacity="0.7372549019607844" d="M 233.5 353 L 234 358.5 L 233 358.5 L 233.5 353 Z " /><path fill="rgb(0,0,0)" stroke="rgb(0,0,0)" stroke-width="1" opacity="0.7372549019607844" d="M 278.5 354 L 279 359.5 L 278 359.5 L 278.5 354 Z " /><path fill="rgb(0,0,0)" stroke="rgb(0,0,0)" stroke-width="1" opacity="0.7372549019607844" d="M 246.5 363 L 247 368.5 L 246 368.5 L 246.5 363 Z " /><path fill="rgb(0,0,0)" stroke="rgb(0,0,0)" stroke-width="1" opacity="0.7372549019607844" d="M 265.5 363 L 266 368.5 L 265 368.5 L 265.5 363 Z " /><path fill="rgb(0,0,0)" stroke="rgb(0,0,0)" stroke-width="1" opacity="0.7372549019607844" d="M 232.5 366 L 233 371.5 L 232 371.5 L 232.5 366 Z " /><path fill="rgb(0,0,0)" stroke="rgb(0,0,0)" stroke-width="1" opacity="0.7372549019607844" d="M 279.5 366 L 280 371.5 L 279 371.5 L 279.5 366 Z " /><path fill="rgb(0,0,0)" stroke="rgb(0,0,0)" stroke-width="1" opacity="0.7372549019607844" d="M 245.5 375 L 246 380.5 L 245 380.5 L 245.5 375 Z " /><path fill="rgb(0,0,0)" stroke="rgb(0,0,0)" stroke-width="1" opacity="0.7372549019607844" d="M 266.5 376 L 267 381.5 L 266 381.5 L 266.5 376 Z " /><path fill="rgb(0,0,0)" stroke="rgb(0,0,0)" stroke-width="1" opacity="0.7372549019607844" d="M 231.5 378 L 232 383.5 L 231 383.5 L 231.5 378 Z " /><path fill="rgb(0,0,0)" stroke="rgb(0,0,0)" stroke-width="1" opacity="0.7372549019607844" d="M 280.5 378 L 281 383.5 L 280 383.5 L 280.5 378 Z " /><path fill="rgb(0,0,0)" stroke="rgb(0,0,0)" stroke-width="1" opacity="0.7372549019607844" d="M 244.5 388 L 245 393.5 L 244 393.5 L 244.5 388 Z " /><path fill="rgb(0,0,0)" stroke="rgb(0,0,0)" stroke-width="1" opacity="0.7372549019607844" d="M 267.5 388 L 268 393.5 L 267 393.5 L 267.5 388 Z " /><path fill="rgb(0,0,0)" stroke="rgb(0,0,0)" stroke-width="1" opacity="0.7372549019607844" d="M 230.5 390 L 231 395.5 L 230 395.5 L 230.5 390 Z " /><path fill="rgb(0,0,0)" stroke="rgb(0,0,0)" stroke-width="1" opacity="0.7372549019607844" d="M 281.5 390 L 282 395.5 L 281 395.5 L 281.5 390 Z " /><path fill="rgb(0,0,0)" stroke="rgb(0,0,0)" stroke-width="1" opacity="0.7372549019607844" d="M 243.5 400 L 244 405.5 L 243 405.5 L 243.5 400 Z " /><path fill="rgb(0,0,0)" stroke="rgb(0,0,0)" stroke-width="1" opacity="0.7372549019607844" d="M 268.5 400 L 269 405.5 L 268 405.5 L 268.5 400 Z " /><path fill="rgb(0,0,0)" stroke="rgb(0,0,0)" stroke-width="1" opacity="0.7372549019607844" d="M 229.5 402 L 230 407.5 L 229 407.5 L 229.5 402 Z " /><path fill="rgb(0,0,0)" stroke="rgb(0,0,0)" stroke-width="1" opacity="0.7372549019607844" d="M 282.5 402 L 283 407.5 L 282 407.5 L 282.5 402 Z " /><path fill="rgb(0,0,0)" stroke="rgb(0,0,0)" stroke-width="1" opacity="0.7372549019607844" d="M 242.5 412 L 243 417.5 L 242 417.5 L 242.5 412 Z " /><path fill="rgb(0,0,0)" stroke="rgb(0,0,0)" stroke-width="1" opacity="0.7372549019607844" d="M 269.5 412 L 270 417.5 L 269 417.5 L 269.5 412 Z " /><path fill="rgb(0,0,0)" stroke="rgb(0,0,0)" stroke-width="1" opacity="0.7372549019607844" d="M 228.5 414 L 229 419.5 L 228 419.5 L 228.5 414 Z " /><path fill="rgb(0,0,0)" stroke="rgb(0,0,0)" stroke-width="1" opacity="0.7372549019607844" d="M 283.5 414 L 284 419.5 L 283 419.5 L 283.5 414 Z " /><path fill="rgb(0,0,0)" stroke="rgb(0,0,0)" stroke-width="1" opacity="0.7372549019607844" d="M 241.5 424 L 242 429.5 L 241 429.5 L 241.5 424 Z " /><path fill="rgb(0,0,0)" stroke="rgb(0,0,0)" stroke-width="1" opacity="0.7372549019607844" d="M 270.5 424 L 271 429.5 L 270 429.5 L 270.5 424 Z " /><path fill="rgb(0,0,0)" stroke="rgb(0,0,0)" stroke-width="1" opacity="0.7372549019607844" d="M 227.5 426 L 228 431.5 L 227 431.5 L 227.5 426 Z " /><path fill="rgb(0,0,0)" stroke="rgb(0,0,0)" stroke-width="1" opacity="0.7372549019607844" d="M 284.5 426 L 285 431.5 L 284 431.5 L 284.5 426 Z " /><path fill="rgb(0,0,0)" stroke="rgb(0,0,0)" stroke-width="1" opacity="0.7372549019607844" d="M 240.5 436 L 241 441.5 L 240 441.5 L 240.5 436 Z " /><path fill="rgb(0,0,0)" stroke="rgb(0,0,0)" stroke-width="1" opacity="0.7372549019607844" d="M 271.5 436 L 272 441.5 L 271 441.5 L 271.5 436 Z " /><path fill="rgb(0,0,0)" stroke="rgb(0,0,0)" stroke-width="1" opacity="0.7372549019607844" d="M 226.5 438 L 227 443.5 L 226 443.5 L 226.5 438 Z " /><path fill="rgb(0,0,0)" stroke="rgb(0,0,0)" stroke-width="1" opacity="0.7372549019607844" d="M 285.5 439 L 286 444.5 L 285 444.5 L 285.5 439 Z " /><path fill="rgb(0,0,0)" stroke="rgb(0,0,0)" stroke-width="1" opacity="0.7372549019607844" d="M 239.5 448 L 240 453.5 L 239 453.5 L 239.5 448 Z " /><path fill="rgb(0,0,0)" stroke="rgb(0,0,0)" stroke-width="1" opacity="0.7372549019607844" d="M 272.5 448 L 273 453.5 L 272 453.5 L 272.5 448 Z " /><path fill="rgb(0,0,0)" stroke="rgb(0,0,0)" stroke-width="1" opacity="0.7372549019607844" d="M 225.5 451 L 226 456.5 L 225 456.5 L 225.5 451 Z " /><path fill="rgb(0,0,0)" stroke="rgb(0,0,0)" stroke-width="1" opacity="0.7372549019607844" d="M 286.5 451 L 287 456.5 L 286 456.5 L 286.5 451 Z " /><path fill="rgb(0,0,0)" stroke="rgb(0,0,0)" stroke-width="1" opacity="0.7372549019607844" d="M 238.5 460 L 239 465.5 L 238 465.5 L 238.5 460 Z " /><path fill="rgb(0,0,0)" stroke="rgb(0,0,0)" stroke-width="1" opacity="0.7372549019607844" d="M 273.5 461 L 274 466.5 L 273 466.5 L 273.5 461 Z " /><path fill="rgb(0,0,0)" stroke="rgb(0,0,0)" stroke-width="1" opacity="0.7372549019607844" d="M 224.5 463 L 225 468.5 L 224 468.5 L 224.5 463 Z " /><path fill="rgb(0,0,0)" stroke="rgb(0,0,0)" stroke-width="1" opacity="0.7372549019607844" d="M 287.5 463 L 288 468.5 L 287 468.5 L 287.5 463 Z " /><path fill="rgb(0,0,0)" stroke="rgb(0,0,0)" stroke-width="1" opacity="0.7372549019607844" d="M 237.5 472 L 238 478.5 L 237 478.5 L 237.5 472 Z " /><path fill="rgb(0,0,0)" stroke="rgb(0,0,0)" stroke-width="1" opacity="0.7372549019607844" d="M 274.5 473 L 275 478.5 L 274 478.5 L 274.5 473 Z " /><path fill="rgb(0,0,0)" stroke="rgb(0,0,0)" stroke-width="1" opacity="0.7372549019607844" d="M 223.5 475 L 224 480.5 L 223 480.5 L 223.5 475 Z " /><path fill="rgb(0,0,0)" stroke="rgb(0,0,0)" stroke-width="1" opacity="0.7372549019607844" d="M 288.5 475 L 289 480.5 L 288 480.5 L 288.5 475 Z " /><path fill="rgb(0,0,0)" stroke="rgb(0,0,0)" stroke-width="1" opacity="0.7372549019607844" d="M 236.5 485 L 237 490.5 L 236 490.5 L 236.5 485 Z " /><path fill="rgb(0,0,0)" stroke="rgb(0,0,0)" stroke-width="1" opacity="0.7372549019607844" d="M 275.5 485 L 276 490.5 L 275 490.5 L 275.5 485 Z " /><path fill="rgb(0,0,0)" stroke="rgb(0,0,0)" stroke-width="1" opacity="0.7372549019607844" d="M 222.5 487 L 223 491.5 L 222 491.5 L 222.5 487 Z " /><path fill="rgb(0,0,0)" stroke="rgb(0,0,0)" stroke-width="1" opacity="0.7372549019607844" d="M 289.5 487 L 290 491.5 L 289 491.5 L 289.5 487 Z " /><path fill="rgb(0,0,0)" stroke="rgb(0,0,0)" stroke-width="1" opacity="0.7372549019607844" d="M 110.5 494 L 219 494.5 L 110.5 495 L 110.5 494 Z " /><path fill="rgb(0,0,0)" stroke="rgb(0,0,0)" stroke-width="1" opacity="0.7372549019607844" d="M 293.5 494 L 402 494.5 L 293.5 495 L 293.5 494 Z " /><path fill="rgb(0,0,0)" stroke="rgb(0,0,0)" stroke-width="1" opacity="0.7372549019607844" d="M 234.5 498 L 233.5 500 L 234.5 498 Z " /><path fill="rgb(0,0,0)" stroke="rgb(0,0,0)" stroke-width="1" opacity="0.7372549019607844" d="M 95.5 500 L 99.5 505 L 95.5 500 Z " /><path fill="rgb(0,0,0)" stroke="rgb(0,0,0)" stroke-width="1" opacity="0.7372549019607844" d="M 416.5 500 L 412.5 505 L 416.5 500 Z " /><path fill="rgb(0,0,0)" stroke="rgb(0,0,0)" stroke-width="1" opacity="0.7372549019607844" d="M 232.5 501 L 229.5 505 L 232.5 501 Z " /><path fill="rgb(0,0,0)" stroke="rgb(0,0,0)" stroke-width="1" opacity="0.7372549019607844" d="M 279.5 501 L 282.5 505 L 279.5 501 Z " /><path fill="rgb(0,0,0)" stroke="rgb(0,0,0)" stroke-width="1" opacity="0.996078431372549" d="M 115.5 18 L 114.5 20 L 115.5 18 Z " /><path fill="rgb(0,0,0)" stroke="rgb(0,0,0)" stroke-width="1" opacity="0.996078431372549" d="M 125.5 52 L 126 103.5 L 125 103.5 L 125.5 52 Z " /><path fill="rgb(0,0,0)" stroke="rgb(0,0,0)" stroke-width="1" opacity="0.996078431372549" d="M 386.5 52 L 387 103.5 L 386 103.5 L 386.5 52 Z " /><path fill="rgb(0,0,0)" stroke="rgb(0,0,0)" stroke-width="1" opacity="0.996078431372549" d="M 119.5 118 L 116.5 122 L 119.5 118 Z " /><path fill="rgb(0,0,0)" stroke="rgb(0,0,0)" stroke-width="1" opacity="0.996078431372549" d="M 392.5 118 L 395.5 122 L 392.5 118 Z " /><path fill="rgb(0,0,0)" stroke="rgb(0,0,0)" stroke-width="1" opacity="0.996078431372549" d="M 130.5 125 L 129.5 127 L 130.5 125 Z " /><path fill="rgb(0,0,0)" stroke="rgb(0,0,0)" stroke-width="1" opacity="0.996078431372549" d="M 381.5 125 L 382.5 127 L 381.5 125 Z " /><path fill="rgb(0,0,0)" stroke="rgb(0,0,0)" stroke-width="1" opacity="0.996078431372549" d="M 282.5 129 L 280.5 132 L 282.5 129 Z " /><path fill="rgb(0,0,0)" stroke="rgb(0,0,0)" stroke-width="1" opacity="0.996078431372549" d="M 124.5 131 L 123.5 133 L 124.5 131 Z " /><path fill="rgb(0,0,0)" stroke="rgb(0,0,0)" stroke-width="1" opacity="0.996078431372549" d="M 387.5 131 L 388.5 133 L 387.5 131 Z " /><path fill="rgb(0,0,0)" stroke="rgb(0,0,0)" stroke-width="1" opacity="0.996078431372549" d="M 250.5 132 L 252.5 135 L 250.5 132 Z " /><path fill="rgb(0,0,0)" stroke="rgb(0,0,0)" stroke-width="1" opacity="0.996078431372549" d="M 255.5 135 L 271 135.5 L 255.5 136 L 255.5 135 Z " /><path fill="rgb(0,0,0)" stroke="rgb(0,0,0)" stroke-width="1" opacity="0.996078431372549" d="M 255 252 Q 258 251 257 254 Q 254 255 255 252 Z " /><path fill="rgb(0,0,0)" stroke="rgb(0,0,0)" stroke-width="1" opacity="0.996078431372549" d="M 222.5 492 L 221.5 494 L 222.5 492 Z " /><path fill="rgb(0,0,0)" stroke="rgb(0,0,0)" stroke-width="1" opacity="0.996078431372549" d="M 289.5 492 L 290.5 494 L 289.5 492 Z " /><path fill="rgb(0,0,0)" stroke="rgb(0,0,0)" stroke-width="1" opacity="1" d="M 116.5 4 L 395.5 4 Q 403.8 5.7 408 11.5 L 411 18.5 L 414 72.5 L 415 73.5 L 415 86.5 L 416 87.5 L 416 100.5 L 417 101.5 L 417 114.5 L 418 115.5 L 418 128.5 L 419 129.5 L 419 493.5 Q 417.1 501.2 411.5 505 L 403.5 508 L 291.5 508 Q 283.2 506.3 279 500.5 L 276 493.5 L 276 483.5 L 275 482.5 L 275 471.5 L 274 470.5 L 274 459.5 L 273 458.5 L 273 446.5 L 272 445.5 L 272 434.5 L 271 433.5 L 271 422.5 L 270 421.5 L 270 410.5 L 269 409.5 L 269 398.5 L 268 397.5 L 268 386.5 L 267 385.5 L 267 374.5 L 266 373.5 L 266 361.5 L 265 360.5 L 265 349.5 L 264 348.5 L 264 337.5 L 263 336.5 L 263 325.5 L 262 324.5 L 262 313.5 L 261 312.5 L 261 301.5 L 260 300.5 L 257 252 L 255 252.5 L 255 263.5 L 254 264.5 L 254 276.5 L 253 277.5 L 253 288.5 L 252 289.5 L 252 300.5 L 251 301.5 L 251 312.5 L 250 313.5 L 250 324.5 L 249 325.5 L 249 336.5 L 248 337.5 L 248 348.5 L 247 349.5 L 247 360.5 L 246 361.5 L 246 373.5 L 245 374.5 L 245 385.5 L 244 386.5 L 244 397.5 L 243 398.5 L 243 409.5 L 242 410.5 L 242 421.5 L 241 422.5 L 241 433.5 L 240 434.5 L 236 493.5 Q 234.4 500.4 229.5 504 L 220.5 508 L 108.5 508 Q 100 506.5 96 500.5 L 93 493.5 L 93 129.5 L 94 128.5 L 94 115.5 L 95 114.5 L 95 101.5 L 96 100.5 L 96 87.5 L 97 86.5 L 97 73.5 L 98 72.5 L 101 18.5 Q 102.5 11.5 107.5 8 L 116.5 4 Z M 118 17 L 116 18 L 114 20 L 114 31 L 113 32 L 113 39 L 114 39 L 249 39 L 249 18 L 249 17 L 118 17 Z M 263 17 L 263 39 L 264 39 L 399 39 L 398 21 L 397 18 L 395 17 L 263 17 Z M 112 52 L 107 126 L 117 122 L 122 116 L 126 104 L 126 53 L 126 52 L 112 52 Z M 139 52 L 139 104 L 136 117 L 129 128 Q 121 136 109 140 L 106 141 L 106 493 L 110 495 L 220 495 L 222 494 L 223 493 L 223 484 L 224 483 L 226 447 L 227 446 L 227 435 L 228 434 L 228 423 L 229 422 L 232 375 L 233 374 L 233 362 L 234 361 L 234 350 L 235 349 L 235 338 L 236 337 L 236 326 L 237 325 L 240 277 L 241 276 L 241 265 L 242 264 L 242 253 L 243 252 L 243 241 L 244 240 L 244 229 L 245 228 L 245 217 L 246 216 L 247 192 L 248 191 L 248 180 L 249 179 Q 248 170 250 165 Q 251 160 259 161 L 263 168 L 265 204 L 266 205 L 266 216 L 267 217 L 267 228 L 268 229 L 268 240 L 269 241 L 269 252 L 270 253 L 270 264 L 271 265 L 271 276 L 272 277 L 272 289 L 273 290 L 273 301 L 274 302 L 274 313 L 275 314 L 275 325 L 276 326 L 276 337 L 277 338 L 277 349 L 278 350 L 278 361 L 279 362 L 279 374 L 280 375 L 280 386 L 281 387 L 281 398 L 282 399 L 282 410 L 283 411 L 283 422 L 284 423 L 284 434 L 285 435 L 285 446 L 286 447 L 286 459 L 287 460 L 289 493 L 293 495 L 403 495 L 405 494 L 406 493 L 406 140 Q 394 139 387 131 L 376 117 L 373 104 L 373 52 L 286 52 L 286 123 L 284 128 L 275 135 L 254 135 L 249 129 L 249 52 L 139 52 Z M 263 52 L 263 122 L 272 122 L 273 121 L 273 53 L 273 52 L 263 52 Z M 386 52 L 386 104 L 388 112 L 392 119 Q 397 125 405 126 L 404 102 L 403 101 L 403 88 L 402 87 L 402 74 L 401 73 L 401 60 L 400 59 L 400 52 L 386 52 Z " /></svg>